<svg width="26" height="22" viewBox="0 0 26 22" fill="none" xmlns="http://www.w3.org/2000/svg">
<path d="M24.9166 1.25003C23.8792 1.9818 22.7305 2.54148 21.5149 2.90753C20.8625 2.15733 19.9954 1.62561 19.0309 1.38428C18.0664 1.14295 17.051 1.20366 16.1222 1.55819C15.1933 1.91272 14.3957 2.54396 13.8373 3.36656C13.2789 4.18915 12.9866 5.16339 12.9999 6.15753V7.24086C11.0961 7.29023 9.20963 6.86799 7.50851 6.01176C5.80739 5.15553 4.34443 3.89188 3.24992 2.33336C3.24992 2.33336 -1.08341 12.0834 8.66659 16.4167C6.43549 17.9312 3.77767 18.6905 1.08325 18.5834C10.8333 24 22.7499 18.5834 22.7499 6.12503C22.7499 5.82386 22.7196 5.5227 22.6633 5.22586C23.7689 4.13548 24.5492 2.7588 24.9166 1.25003Z" fill="white" stroke="white" stroke-width="2" stroke-linecap="round" stroke-linejoin="round"/>
</svg>
